<?xml version="1.0" encoding="UTF-8"?>
<svg xmlns="http://www.w3.org/2000/svg" xmlns:xlink="http://www.w3.org/1999/xlink" width="100px" height="110px" viewBox="0 0 100 149" version="1.1">
<g id="surface1">
<path style=" stroke:none;fill-rule:nonzero;fill:rgb(3.921569%,81.176471%,51.372549%);fill-opacity:1;" d="M 25.003906 149 C 38.800781 149 50 137.875 50 124.167969 L 50 99.332031 L 25.003906 99.332031 C 11.207031 99.332031 0.0117188 110.457031 0.0117188 124.167969 C 0.0117188 137.875 11.207031 149 25.003906 149 Z M 25.003906 149 "/>
<path style=" stroke:none;fill-rule:nonzero;fill:rgb(63.529412%,34.901961%,100%);fill-opacity:1;" d="M 0.0117188 74.5 C 0.0117188 60.792969 11.207031 49.667969 25.003906 49.667969 L 50 49.667969 L 50 99.332031 L 25.003906 99.332031 C 11.207031 99.332031 0.0117188 88.207031 0.0117188 74.5 Z M 0.0117188 74.5 "/>
<path style=" stroke:none;fill-rule:nonzero;fill:rgb(94.901961%,30.588235%,11.764706%);fill-opacity:1;" d="M 0.0117188 24.832031 C 0.0117188 11.125 11.207031 0 25.003906 0 L 50 0 L 50 49.667969 L 25.003906 49.667969 C 11.207031 49.667969 0.0117188 38.542969 0.0117188 24.832031 Z M 0.0117188 24.832031 "/>
<path style=" stroke:none;fill-rule:nonzero;fill:rgb(100%,44.705882%,38.431373%);fill-opacity:1;" d="M 50 0 L 74.996094 0 C 88.792969 0 99.988281 11.125 99.988281 24.832031 C 99.988281 38.542969 88.792969 49.667969 74.996094 49.667969 L 50 49.667969 Z M 50 0 "/>
<path style=" stroke:none;fill-rule:nonzero;fill:rgb(10.196078%,73.72549%,99.607843%);fill-opacity:1;" d="M 99.988281 74.5 C 99.988281 88.207031 88.792969 99.332031 74.996094 99.332031 C 61.199219 99.332031 50 88.207031 50 74.5 C 50 60.792969 61.199219 49.667969 74.996094 49.667969 C 88.792969 49.667969 99.988281 60.792969 99.988281 74.5 Z M 99.988281 74.5 "/>
</g>
</svg>
